<svg width="13.000000" height="15.000000" viewBox="0 0 13 15" fill="none" xmlns="http://www.w3.org/2000/svg" xmlns:xlink="http://www.w3.org/1999/xlink">
	<desc>
			Created with Pixso.
	</desc>
	<defs/>
	<path id="Vector" d="M1 1C0.73 1 0.48 1.1 0.29 1.29C0.1 1.48 0 1.73 0 2L0 3C0 3.26 0.1 3.51 0.29 3.7C0.48 3.89 0.73 4 1 4L1.5 4L1.5 13C1.5 13.53 1.71 14.03 2.08 14.41C2.46 14.78 2.96 15 3.5 15L9.5 15C10.03 15 10.53 14.78 10.91 14.41C11.28 14.03 11.5 13.53 11.5 13L11.5 4L12 4C12.26 4 12.51 3.89 12.7 3.7C12.89 3.51 13 3.26 13 3L13 2C13 1.73 12.89 1.48 12.7 1.29C12.51 1.1 12.26 1 12 1L8.5 1C8.5 0.73 8.39 0.48 8.2 0.29C8.01 0.1 7.76 0 7.5 0L5.5 0C5.23 0 4.98 0.1 4.79 0.29C4.6 0.48 4.5 0.73 4.5 1L1 1ZM4 5C4.13 5 4.25 5.05 4.35 5.14C4.44 5.24 4.5 5.36 4.5 5.5L4.5 12.5C4.5 12.63 4.44 12.75 4.35 12.85C4.25 12.94 4.13 13 4 13C3.86 13 3.74 12.94 3.64 12.85C3.55 12.75 3.5 12.63 3.5 12.5L3.5 5.5C3.5 5.36 3.55 5.24 3.64 5.14C3.74 5.05 3.86 5 4 5ZM6.5 5C6.63 5 6.75 5.05 6.85 5.14C6.94 5.24 7 5.36 7 5.5L7 12.5C7 12.63 6.94 12.75 6.85 12.85C6.75 12.94 6.63 13 6.5 13C6.36 13 6.24 12.94 6.14 12.85C6.05 12.75 6 12.63 6 12.5L6 5.5C6 5.36 6.05 5.24 6.14 5.14C6.24 5.05 6.36 5 6.5 5ZM9.5 5.5L9.5 12.5C9.5 12.63 9.44 12.75 9.35 12.85C9.25 12.94 9.13 13 9 13C8.86 13 8.74 12.94 8.64 12.85C8.55 12.75 8.5 12.63 8.5 12.5L8.5 5.5C8.5 5.36 8.55 5.24 8.64 5.14C8.74 5.05 8.86 5 9 5C9.13 5 9.25 5.05 9.35 5.14C9.44 5.24 9.5 5.36 9.5 5.5Z" fill="#DF4444" fill-opacity="1.000000" fill-rule="nonzero"/>
</svg>
