<svg width="16.000000" height="16.000000" viewBox="0 0 16 16" fill="none" xmlns="http://www.w3.org/2000/svg" xmlns:xlink="http://www.w3.org/1999/xlink">
	<desc>
			Created with Pixso.
	</desc>
	<defs/>
	<path id="Vector" d="M11.55 0L1.77 0C0.8 0 0 0.79 0 1.77L0 14.22C0 15.2 0.8 16 1.77 16L14.22 16C15.2 16 16 15.2 16 14.22L16 4.44L11.55 0ZM3.55 3.55L8 3.55L8 5.33L3.55 5.33L3.55 3.55ZM12.44 12.44L3.55 12.44L3.55 10.66L12.44 10.66L12.44 12.44ZM12.44 8.88L3.55 8.88L3.55 7.11L12.44 7.11L12.44 8.88ZM10.66 5.33L10.66 1.77L14.22 5.33L10.66 5.33Z" fill="#7890B2" fill-opacity="1.000000" fill-rule="nonzero"/>
</svg>
